<?xml version="1.0" encoding="UTF-8" standalone="no"?><svg xmlns="http://www.w3.org/2000/svg" xmlns:xlink="http://www.w3.org/1999/xlink" contentScriptType="application/ecmascript" contentStyleType="text/css" height="305px" preserveAspectRatio="none" style="width:225px;height:305px;background:#FFFFFF;" version="1.1" viewBox="0 0 225 305" width="225px" zoomAndPan="magnify"><defs><filter height="300%" id="f15cpfqfxqrrml" width="300%" x="-1" y="-1"><feGaussianBlur result="blurOut" stdDeviation="2.0"/><feColorMatrix in="blurOut" result="blurOut2" type="matrix" values="0 0 0 0 0 0 0 0 0 0 0 0 0 0 0 0 0 0 .4 0"/><feOffset dx="4.0" dy="4.0" in="blurOut2" result="blurOut3"/><feBlend in="SourceGraphic" in2="blurOut3" mode="normal"/></filter></defs><g><!--MD5=[5e305716458bbdabbd2d7f572ed2bae2]
class Card--><rect codeLine="1" fill="#FEFECE" filter="url(#f15cpfqfxqrrml)" height="60.8047" id="Card" style="stroke:#A80036;stroke-width:1.5;" width="204" x="7" y="7"/><ellipse cx="90.75" cy="23" fill="#ADD1B2" rx="11" ry="11" style="stroke:#A80036;stroke-width:1.0;"/><path d="M93.0938,18.6719 C92.1563,18.2344 91.5625,18.0938 90.6875,18.0938 C88.0625,18.0938 86.0625,20.1719 86.0625,22.8906 L86.0625,24.0156 C86.0625,26.5938 88.1719,28.4844 91.0625,28.4844 C92.2813,28.4844 93.4375,28.1875 94.1875,27.6406 C94.7656,27.2344 95.0938,26.7813 95.0938,26.3906 C95.0938,25.9375 94.7031,25.5469 94.2344,25.5469 C94.0156,25.5469 93.8125,25.625 93.625,25.8125 C93.1719,26.2969 93.1719,26.2969 92.9844,26.3906 C92.5625,26.6563 91.875,26.7813 91.1094,26.7813 C89.0625,26.7813 87.7656,25.6875 87.7656,23.9844 L87.7656,22.8906 C87.7656,21.1094 89.0156,19.7969 90.75,19.7969 C91.3281,19.7969 91.9375,19.9531 92.4063,20.2031 C92.8906,20.4844 93.0625,20.7031 93.1563,21.1094 C93.2188,21.5156 93.25,21.6406 93.3906,21.7656 C93.5313,21.9063 93.7656,22.0156 93.9844,22.0156 C94.25,22.0156 94.5156,21.875 94.6875,21.6563 C94.7969,21.5 94.8281,21.3125 94.8281,20.8906 L94.8281,19.4688 C94.8281,19.0313 94.8125,18.9063 94.7188,18.75 C94.5625,18.4844 94.2813,18.3438 93.9844,18.3438 C93.6875,18.3438 93.4844,18.4375 93.2656,18.75 L93.0938,18.6719 Z " fill="#000000"/><text fill="#000000" font-family="sans-serif" font-size="12" lengthAdjust="spacing" textLength="28" x="111.25" y="27.1543">Card</text><line style="stroke:#A80036;stroke-width:1.5;" x1="8" x2="210" y1="39" y2="39"/><line style="stroke:#A80036;stroke-width:1.5;" x1="8" x2="210" y1="47" y2="47"/><ellipse cx="18" cy="58" fill="#84BE84" rx="3" ry="3" style="stroke:#038048;stroke-width:1.0;"/><text fill="#000000" font-family="sans-serif" font-size="11" lengthAdjust="spacing" textLength="178" x="27" y="61.2104">this(value : Value, color : Color)</text><!--MD5=[ff3d20c1112759d46dde2fcead238479]
class Value--><rect codeLine="5" fill="#FEFECE" filter="url(#f15cpfqfxqrrml)" height="163.2422" id="Value" style="stroke:#A80036;stroke-width:1.5;" width="65" x="26.5" y="128"/><ellipse cx="41.5" cy="144" fill="#EB937F" rx="11" ry="11" style="stroke:#A80036;stroke-width:1.0;"/><path d="M40.2969,144.875 L41.75,144.875 L41.75,144.9844 C41.75,145.3906 41.7813,145.5469 41.8594,145.7031 C42.0156,145.9531 42.2969,146.1094 42.5938,146.1094 C42.8438,146.1094 43.1094,145.9688 43.2656,145.75 C43.3906,145.5938 43.4219,145.4375 43.4219,144.9844 L43.4219,143.0625 C43.4219,142.9063 43.4219,142.8594 43.4063,142.7031 C43.3438,142.2344 43.0313,141.9219 42.5781,141.9219 C42.3281,141.9219 42.0625,142.0625 41.8906,142.2813 C41.7813,142.4531 41.75,142.6094 41.75,143.0625 L41.75,143.1875 L40.2969,143.1875 L40.2969,140.7813 L44.2813,140.7813 L44.2813,141.6406 C44.2813,142.0469 44.3125,142.2188 44.3906,142.375 C44.5625,142.625 44.8438,142.7813 45.125,142.7813 C45.3906,142.7813 45.6563,142.6406 45.8281,142.4219 C45.9375,142.25 45.9688,142.1094 45.9688,141.6406 L45.9688,139.0938 L38.3438,139.0938 C37.9063,139.0938 37.7813,139.1094 37.625,139.2031 C37.375,139.3594 37.2188,139.6563 37.2188,139.9375 C37.2188,140.2188 37.3594,140.4688 37.5781,140.6406 C37.7344,140.75 37.9219,140.7813 38.3438,140.7813 L38.5938,140.7813 L38.5938,147.2969 L38.3438,147.2969 C37.9375,147.2969 37.7813,147.3125 37.625,147.4219 C37.375,147.5938 37.2188,147.8594 37.2188,148.1563 C37.2188,148.4219 37.3594,148.6719 37.5781,148.8281 C37.7188,148.9531 37.9531,149 38.3438,149 L46.3438,149 L46.3438,146.4219 C46.3438,145.9844 46.3125,145.8438 46.2344,145.6875 C46.0625,145.4375 45.7813,145.2813 45.5,145.2813 C45.2344,145.2813 44.9688,145.3906 44.7969,145.6406 C44.6875,145.7969 44.6563,145.9375 44.6563,146.4219 L44.6563,147.2969 L40.2969,147.2969 L40.2969,144.875 Z " fill="#000000"/><text fill="#000000" font-family="sans-serif" font-size="12" lengthAdjust="spacing" textLength="33" x="55.5" y="148.1543">Value</text><line style="stroke:#A80036;stroke-width:1.5;" x1="27.5" x2="90.5" y1="160" y2="160"/><text fill="#000000" font-family="sans-serif" font-size="11" lengthAdjust="spacing" textLength="24" x="32.5" y="174.2104">One</text><text fill="#000000" font-family="sans-serif" font-size="11" lengthAdjust="spacing" textLength="23" x="32.5" y="187.0151">Two</text><text fill="#000000" font-family="sans-serif" font-size="11" lengthAdjust="spacing" textLength="34" x="32.5" y="199.8198">Three</text><text fill="#000000" font-family="sans-serif" font-size="11" lengthAdjust="spacing" textLength="24" x="32.5" y="212.6245">Four</text><text fill="#000000" font-family="sans-serif" font-size="11" lengthAdjust="spacing" textLength="24" x="32.5" y="225.4292">Five</text><text fill="#000000" font-family="sans-serif" font-size="11" lengthAdjust="spacing" textLength="18" x="32.5" y="238.2339">Six</text><text fill="#000000" font-family="sans-serif" font-size="11" lengthAdjust="spacing" textLength="38" x="32.5" y="251.0386">Seven</text><text fill="#000000" font-family="sans-serif" font-size="11" lengthAdjust="spacing" textLength="28" x="32.5" y="263.8433">Eight</text><text fill="#000000" font-family="sans-serif" font-size="11" lengthAdjust="spacing" textLength="26" x="32.5" y="276.6479">Nine</text><line style="stroke:#A80036;stroke-width:1.5;" x1="27.5" x2="90.5" y1="283.2422" y2="283.2422"/><!--MD5=[18eee71c88ab61f27581b8cbdd3ef5ee]
class Color--><rect codeLine="17" fill="#FEFECE" filter="url(#f15cpfqfxqrrml)" height="124.8281" id="Color" style="stroke:#A80036;stroke-width:1.5;" width="64" x="127" y="147"/><ellipse cx="142" cy="163" fill="#EB937F" rx="11" ry="11" style="stroke:#A80036;stroke-width:1.0;"/><path d="M140.7969,163.875 L142.25,163.875 L142.25,163.9844 C142.25,164.3906 142.2813,164.5469 142.3594,164.7031 C142.5156,164.9531 142.7969,165.1094 143.0938,165.1094 C143.3438,165.1094 143.6094,164.9688 143.7656,164.75 C143.8906,164.5938 143.9219,164.4375 143.9219,163.9844 L143.9219,162.0625 C143.9219,161.9063 143.9219,161.8594 143.9063,161.7031 C143.8438,161.2344 143.5313,160.9219 143.0781,160.9219 C142.8281,160.9219 142.5625,161.0625 142.3906,161.2813 C142.2813,161.4531 142.25,161.6094 142.25,162.0625 L142.25,162.1875 L140.7969,162.1875 L140.7969,159.7813 L144.7813,159.7813 L144.7813,160.6406 C144.7813,161.0469 144.8125,161.2188 144.8906,161.375 C145.0625,161.625 145.3438,161.7813 145.625,161.7813 C145.8906,161.7813 146.1563,161.6406 146.3281,161.4219 C146.4375,161.25 146.4688,161.1094 146.4688,160.6406 L146.4688,158.0938 L138.8438,158.0938 C138.4063,158.0938 138.2813,158.1094 138.125,158.2031 C137.875,158.3594 137.7188,158.6563 137.7188,158.9375 C137.7188,159.2188 137.8594,159.4688 138.0781,159.6406 C138.2344,159.75 138.4219,159.7813 138.8438,159.7813 L139.0938,159.7813 L139.0938,166.2969 L138.8438,166.2969 C138.4375,166.2969 138.2813,166.3125 138.125,166.4219 C137.875,166.5938 137.7188,166.8594 137.7188,167.1563 C137.7188,167.4219 137.8594,167.6719 138.0781,167.8281 C138.2188,167.9531 138.4531,168 138.8438,168 L146.8438,168 L146.8438,165.4219 C146.8438,164.9844 146.8125,164.8438 146.7344,164.6875 C146.5625,164.4375 146.2813,164.2813 146,164.2813 C145.7344,164.2813 145.4688,164.3906 145.2969,164.6406 C145.1875,164.7969 145.1563,164.9375 145.1563,165.4219 L145.1563,166.2969 L140.7969,166.2969 L140.7969,163.875 Z " fill="#000000"/><text fill="#000000" font-family="sans-serif" font-size="12" lengthAdjust="spacing" textLength="32" x="156" y="167.1543">Color</text><line style="stroke:#A80036;stroke-width:1.5;" x1="128" x2="190" y1="179" y2="179"/><text fill="#000000" font-family="sans-serif" font-size="11" lengthAdjust="spacing" textLength="36" x="133" y="193.2104">Green</text><text fill="#000000" font-family="sans-serif" font-size="11" lengthAdjust="spacing" textLength="26" x="133" y="206.0151">Blue</text><text fill="#000000" font-family="sans-serif" font-size="11" lengthAdjust="spacing" textLength="22" x="133" y="218.8198">Red</text><text fill="#000000" font-family="sans-serif" font-size="11" lengthAdjust="spacing" textLength="37" x="133" y="231.6245">Yellow</text><text fill="#000000" font-family="sans-serif" font-size="11" lengthAdjust="spacing" textLength="35" x="133" y="244.4292">Purple</text><text fill="#000000" font-family="sans-serif" font-size="11" lengthAdjust="spacing" textLength="35" x="133" y="257.2339">Brown</text><line style="stroke:#A80036;stroke-width:1.5;" x1="128" x2="190" y1="263.8281" y2="263.8281"/><!--MD5=[00e5e2c7f1748943a048d58ba5768b92]
link Card to Color--><path codeLine="26" d="M117.709,68.112 C123.69,88.446 131.873,116.27 139.378,141.786 " fill="none" id="Card-to-Color" style="stroke:#A80036;stroke-width:1.0;"/><polygon fill="#A80036" points="140.869,146.856,142.1652,137.0928,139.4573,142.0594,134.4907,139.3515,140.869,146.856" style="stroke:#A80036;stroke-width:1.0;"/><!--MD5=[3cc5f73f64bc9d22c047db4d99406b88]
link Card to Value--><path codeLine="27" d="M100.2907,68.112 C95.7768,83.459 90.0081,103.073 84.2233,122.741 " fill="none" id="Card-to-Value" style="stroke:#A80036;stroke-width:1.0;"/><polygon fill="#A80036" points="82.7531,127.74,89.131,120.2351,84.1645,122.9433,81.4563,117.9769,82.7531,127.74" style="stroke:#A80036;stroke-width:1.0;"/><!--MD5=[d0daa3a867b14ab788fbe4b3a8ad11ef]
@startuml
class Card {
    + this(value : Value, color : Color)
    }

enum Value {
    One
    Two
    Three
    Four
    Five
    Six
    Seven
    Eight
    Nine
}

enum Color {
    Green
    Blue
    Red
    Yellow
    Purple
    Brown
}

Card - -> Color
Card - -> Value
@enduml

PlantUML version 1.2021.7beta2(Unknown compile time)
(GPL source distribution)
Java Runtime: Java(TM) SE Runtime Environment
JVM: Java HotSpot(TM) 64-Bit Server VM
Default Encoding: UTF-8
Language: en
Country: US
--></g></svg>