<?xml version="1.0" encoding="UTF-8" standalone="no"?><svg xmlns="http://www.w3.org/2000/svg" xmlns:xlink="http://www.w3.org/1999/xlink" contentScriptType="application/ecmascript" contentStyleType="text/css" height="215px" preserveAspectRatio="none" style="width:239px;height:215px;background:#FFFFFF;" version="1.1" viewBox="0 0 239 215" width="239px" zoomAndPan="magnify"><defs><filter height="300%" id="f1b8p8hkdhzc7z" width="300%" x="-1" y="-1"><feGaussianBlur result="blurOut" stdDeviation="2.0"/><feColorMatrix in="blurOut" result="blurOut2" type="matrix" values="0 0 0 0 0 0 0 0 0 0 0 0 0 0 0 0 0 0 .4 0"/><feOffset dx="4.0" dy="4.0" in="blurOut2" result="blurOut3"/><feBlend in="SourceGraphic" in2="blurOut3" mode="normal"/></filter></defs><g><!--MD5=[5e305716458bbdabbd2d7f572ed2bae2]
class Card--><rect codeLine="1" fill="#FEFECE" filter="url(#f1b8p8hkdhzc7z)" height="48" id="Card" style="stroke:#A80036;stroke-width:1.5;" width="60" x="146.525" y="153"/><ellipse cx="161.525" cy="169" fill="#ADD1B2" rx="11" ry="11" style="stroke:#A80036;stroke-width:1.0;"/><path d="M163.8688,164.6719 C162.9313,164.2344 162.3375,164.0938 161.4625,164.0938 C158.8375,164.0938 156.8375,166.1719 156.8375,168.8906 L156.8375,170.0156 C156.8375,172.5938 158.9469,174.4844 161.8375,174.4844 C163.0563,174.4844 164.2125,174.1875 164.9625,173.6406 C165.5406,173.2344 165.8688,172.7813 165.8688,172.3906 C165.8688,171.9375 165.4781,171.5469 165.0094,171.5469 C164.7906,171.5469 164.5875,171.625 164.4,171.8125 C163.9469,172.2969 163.9469,172.2969 163.7594,172.3906 C163.3375,172.6563 162.65,172.7813 161.8844,172.7813 C159.8375,172.7813 158.5406,171.6875 158.5406,169.9844 L158.5406,168.8906 C158.5406,167.1094 159.7906,165.7969 161.525,165.7969 C162.1031,165.7969 162.7125,165.9531 163.1813,166.2031 C163.6656,166.4844 163.8375,166.7031 163.9313,167.1094 C163.9938,167.5156 164.025,167.6406 164.1656,167.7656 C164.3063,167.9063 164.5406,168.0156 164.7594,168.0156 C165.025,168.0156 165.2906,167.875 165.4625,167.6563 C165.5719,167.5 165.6031,167.3125 165.6031,166.8906 L165.6031,165.4688 C165.6031,165.0313 165.5875,164.9063 165.4938,164.75 C165.3375,164.4844 165.0563,164.3438 164.7594,164.3438 C164.4625,164.3438 164.2594,164.4375 164.0406,164.75 L163.8688,164.6719 Z " fill="#000000"/><text fill="#000000" font-family="sans-serif" font-size="12" lengthAdjust="spacing" textLength="28" x="175.525" y="173.1543">Card</text><line style="stroke:#A80036;stroke-width:1.5;" x1="147.525" x2="205.525" y1="185" y2="185"/><line style="stroke:#A80036;stroke-width:1.5;" x1="147.525" x2="205.525" y1="193" y2="193"/><!--MD5=[40aed89d1837aca05f92fcfe9ee92de2]
class CardPile--><rect codeLine="3" fill="#FEFECE" filter="url(#f1b8p8hkdhzc7z)" height="86.4141" id="CardPile" style="stroke:#A80036;stroke-width:1.5;" width="98" x="127.525" y="7"/><ellipse cx="150.625" cy="23" fill="#ADD1B2" rx="11" ry="11" style="stroke:#A80036;stroke-width:1.0;"/><path d="M152.9688,18.6719 C152.0313,18.2344 151.4375,18.0938 150.5625,18.0938 C147.9375,18.0938 145.9375,20.1719 145.9375,22.8906 L145.9375,24.0156 C145.9375,26.5938 148.0469,28.4844 150.9375,28.4844 C152.1563,28.4844 153.3125,28.1875 154.0625,27.6406 C154.6406,27.2344 154.9688,26.7813 154.9688,26.3906 C154.9688,25.9375 154.5781,25.5469 154.1094,25.5469 C153.8906,25.5469 153.6875,25.625 153.5,25.8125 C153.0469,26.2969 153.0469,26.2969 152.8594,26.3906 C152.4375,26.6563 151.75,26.7813 150.9844,26.7813 C148.9375,26.7813 147.6406,25.6875 147.6406,23.9844 L147.6406,22.8906 C147.6406,21.1094 148.8906,19.7969 150.625,19.7969 C151.2031,19.7969 151.8125,19.9531 152.2813,20.2031 C152.7656,20.4844 152.9375,20.7031 153.0313,21.1094 C153.0938,21.5156 153.125,21.6406 153.2656,21.7656 C153.4063,21.9063 153.6406,22.0156 153.8594,22.0156 C154.125,22.0156 154.3906,21.875 154.5625,21.6563 C154.6719,21.5 154.7031,21.3125 154.7031,20.8906 L154.7031,19.4688 C154.7031,19.0313 154.6875,18.9063 154.5938,18.75 C154.4375,18.4844 154.1563,18.3438 153.8594,18.3438 C153.5625,18.3438 153.3594,18.4375 153.1406,18.75 L152.9688,18.6719 Z " fill="#000000"/><text fill="#000000" font-family="sans-serif" font-size="12" lengthAdjust="spacing" textLength="48" x="166.425" y="27.1543">CardPile</text><line style="stroke:#A80036;stroke-width:1.5;" x1="128.525" x2="224.525" y1="39" y2="39"/><line style="stroke:#A80036;stroke-width:1.5;" x1="128.525" x2="224.525" y1="47" y2="47"/><ellipse cx="138.525" cy="58" fill="#84BE84" rx="3" ry="3" style="stroke:#038048;stroke-width:1.0;"/><text fill="#000000" font-family="sans-serif" font-size="11" lengthAdjust="spacing" textLength="32" x="147.525" y="61.2104">new()</text><ellipse cx="138.525" cy="70.8047" fill="#84BE84" rx="3" ry="3" style="stroke:#038048;stroke-width:1.0;"/><text fill="#000000" font-family="sans-serif" font-size="11" lengthAdjust="spacing" textLength="72" x="147.525" y="74.0151">draw() : Card</text><rect fill="#F24D5C" height="6" style="stroke:#C82930;stroke-width:1.0;" width="6" x="135.525" y="80.6094"/><text fill="#000000" font-family="sans-serif" font-size="11" lengthAdjust="spacing" textLength="47" x="147.525" y="86.8198">shuffle()</text><!--MD5=[83e999336accc5a83f06d93ea6987441]
link CardPile to Card--><path codeLine="10" d="M176.525,105.319 C176.525,105.319 176.525,129.22 176.525,139.4982 " fill="none" id="CardPile-Card" style="stroke:#A80036;stroke-width:1.0;"/><polygon fill="#A80036" points="176.525,152.6717,180.525,143.6717,176.525,147.6717,172.525,143.6717,176.525,152.6717" style="stroke:#A80036;stroke-width:1.0;"/><line style="stroke:#A80036;stroke-width:1.0;" x1="176.525" x2="176.525" y1="147.6717" y2="139.6717"/><polygon fill="#A80036" points="176.525,93.319,172.525,99.319,176.525,105.319,180.525,99.319,176.525,93.319" style="stroke:#A80036;stroke-width:1.0;"/><text fill="#000000" font-family="sans-serif" font-size="13" lengthAdjust="spacing" textLength="152" x="6" y="141.9966">0..54 - cards {ordered}</text><!--MD5=[bbea182cac0d0d6374700cb5536e51b8]
@startuml
class Card {}

class CardPile{

    + new()
    + draw() : Card
    - shuffle()
}

CardPile *- -> "0..54 - cards {ordered}" Card
@enduml

PlantUML version 1.2021.7beta2(Unknown compile time)
(GPL source distribution)
Java Runtime: Java(TM) SE Runtime Environment
JVM: Java HotSpot(TM) 64-Bit Server VM
Default Encoding: UTF-8
Language: en
Country: US
--></g></svg>